<?xml version="1.0" encoding="utf-8"?>
<!-- Generator: Adobe Illustrator 27.5.0, SVG Export Plug-In . SVG Version: 6.00 Build 0)  -->
<svg version="1.1" xmlns="http://www.w3.org/2000/svg" xmlns:xlink="http://www.w3.org/1999/xlink" x="0px" y="0px"
	 viewBox="0 0 500 500" style="enable-background:new 0 0 500 500;" xml:space="preserve">
<g id="BACKGROUND">
</g>
<g id="OBJECTS">
	<path style="opacity:0.42;fill:#B6DCFD;" d="M474.255,372.185c0-29.21-16.742-54.387-40.89-65.971
		c10.3-22.718,16.063-48.05,16.063-74.77c0-97.841-77.126-177.157-172.265-177.157s-172.265,79.316-172.265,177.157
		c0,3.486,0.109,6.945,0.302,10.38c-45.384,9.83-79.455,51.238-79.455,100.835c0,51.597,36.873,94.337,84.999,101.873
		c1.046,0.309,2.145,0.484,3.283,0.484h0.287c3.819,0.454,7.701,0.696,11.639,0.696c3.938,0,7.82-0.241,11.639-0.696h270.169
		c1.114,0,2.19-0.17,3.215-0.466C446.539,440.705,474.255,409.777,474.255,372.185z"/>
	<path style="opacity:0.15;fill:#6CADE3;stroke:#6CADE3;stroke-width:2;stroke-miterlimit:10;" d="M38.609,393.163
		c14.813,27.034,41.129,46.514,72.134,51.369c1.046,0.309,2.145,0.484,3.283,0.484h0.287c3.819,0.454,7.701,0.696,11.639,0.696
		c3.938,0,7.82-0.241,11.639-0.696h270.169c1.114,0,2.19-0.17,3.215-0.466c28.661-3.099,52.215-23.795,60.281-51.387H38.609z"/>
	<g style="opacity:0.69;">
		<path style="opacity:0.6;fill:#6CADE3;" d="M388.575,375.486l-25.517-44.196v-35.153h1.694c2.484,0,4.517-2.033,4.517-4.517l0,0
			c0-2.484-2.033-4.517-4.517-4.517h-24.845c-2.484,0-4.517,2.033-4.517,4.517l0,0c0,2.484,2.033,4.517,4.517,4.517h1.694v35.152
			l-25.517,44.196c-4.528,7.843,1.132,17.646,10.188,17.646h52.114C387.443,393.132,393.103,383.329,388.575,375.486z"/>
		<path style="opacity:0.6;fill:#6CADE3;" d="M295.265,361.945L246.95,278.26V211.7h3.208c4.704,0,8.553-3.849,8.553-8.553v0
			c0-4.704-3.849-8.553-8.553-8.553h-47.043c-4.704,0-8.553,3.849-8.553,8.553v0c0,4.704,3.849,8.553,8.553,8.553h3.207v66.561
			l-48.315,83.685c-8.574,14.85,2.143,33.412,19.29,33.412h98.678C293.122,395.357,303.839,376.795,295.265,361.945z"/>
		<path style="opacity:0.44;fill:#6CADE3;" d="M461.411,352.655h-7.186v-20.203c0-0.164-0.01-0.326-0.025-0.487h0.627
			c1.552,0,2.821-1.27,2.821-2.821s-1.27-2.821-2.821-2.821h-14.42c-1.552,0-2.821,1.27-2.821,2.821s1.27,2.821,2.821,2.821h0.965
			c-0.014,0.161-0.025,0.322-0.025,0.487v20.203h-10.321v-20.203c0-0.164-0.01-0.326-0.025-0.487h0.627
			c1.552,0,2.821-1.27,2.821-2.821s-1.27-2.821-2.821-2.821h-14.42c-1.552,0-2.821,1.27-2.821,2.821s1.27,2.821,2.821,2.821h0.965
			c-0.014,0.161-0.025,0.322-0.025,0.487v20.203h-6.27c-1.034,0-1.881,0.846-1.881,1.881c0,1.035,0.846,1.881,1.881,1.881h1.881
			v33.543c0,0.141,0.025,0.276,0.061,0.406c-0.038,0.173-0.061,0.35-0.061,0.534c0,1.379,1.129,2.508,2.508,2.508h41.38
			c1.379,0,2.508-1.129,2.508-2.508c0-0.628-0.242-1.197-0.627-1.638v-32.845h1.881c1.035,0,1.881-0.846,1.881-1.881
			C463.292,353.501,462.446,352.655,461.411,352.655z M456.396,388.392h-39.499v-31.976h1.254v15.815
			c0,3.026,2.476,5.502,5.503,5.502h1.872c3.026,0,5.502-2.476,5.502-5.502v-15.815h10.321v15.815c0,3.026,2.476,5.502,5.502,5.502
			h1.873c3.026,0,5.502-2.476,5.502-5.502v-15.815h2.17V388.392z"/>
		<g>
			<path style="opacity:0.64;fill:#6CADE3;" d="M215.717,175.024L215.717,175.024c-3.421,0-6.221-2.799-6.221-6.221l0,0
				c0-3.421,2.799-6.221,6.221-6.221l0,0c3.421,0,6.221,2.799,6.221,6.221l0,0C221.937,172.225,219.138,175.024,215.717,175.024z"/>
			<path style="opacity:0.64;fill:#6CADE3;" d="M218.109,127.173L218.109,127.173c-3.421,0-6.221-2.799-6.221-6.221l0,0
				c0-3.421,2.799-6.221,6.221-6.221l0,0c3.421,0,6.221,2.799,6.221,6.221l0,0C224.33,124.373,221.53,127.173,218.109,127.173z"/>
			<path style="opacity:0.64;fill:#6CADE3;" d="M236.293,157.102L236.293,157.102c-5.671,0-10.311-4.64-10.311-10.311l0,0
				c0-5.671,4.64-10.311,10.311-10.311l0,0c5.671,0,10.311,4.64,10.311,10.311l0,0C246.603,152.463,241.963,157.102,236.293,157.102
				z"/>
		</g>
		<g>
			<path style="opacity:0.64;fill:#6CADE3;" d="M348.923,271.109L348.923,271.109c-2.172,0-3.95-1.777-3.95-3.95l0,0
				c0-2.172,1.777-3.95,3.95-3.95l0,0c2.172,0,3.95,1.777,3.95,3.95l0,0C352.872,269.332,351.095,271.109,348.923,271.109z"/>
			<path style="opacity:0.64;fill:#6CADE3;" d="M350.442,240.727L350.442,240.727c-2.172,0-3.95-1.777-3.95-3.95l0,0
				c0-2.172,1.777-3.95,3.95-3.95l0,0c2.172,0,3.95,1.777,3.95,3.95l0,0C354.391,238.95,352.614,240.727,350.442,240.727z"/>
			<path style="opacity:0.64;fill:#6CADE3;" d="M361.987,259.73L361.987,259.73c-3.601,0-6.546-2.946-6.546-6.546l0,0
				c0-3.6,2.946-6.546,6.546-6.546h0c3.6,0,6.546,2.946,6.546,6.546l0,0C368.533,256.785,365.587,259.73,361.987,259.73z"/>
		</g>
	</g>
	<g>
		<g>
			<path style="fill:#6CADE3;" d="M115.292,302.908c1.918-1.93,3.382-4.364,4.151-7.176c1.43-5.232,0.137-10.563-3.015-14.493
				c0.313-0.147,0.626-0.297,0.932-0.471c6.187-3.53,8.34-11.408,4.81-17.594c-3.53-6.187-11.408-8.34-17.595-4.81
				c-6.095,3.478-8.264,11.173-4.951,17.316c-5.449,1.426-10.01,5.639-11.602,11.463c-0.69,2.525-0.743,5.072-0.262,7.475
				c-5.482,2.588-9.844,7.461-11.568,13.768c-3.13,11.449,3.614,23.268,15.064,26.398c11.45,3.13,23.269-3.614,26.398-15.064
				C119.273,313.795,118.244,307.775,115.292,302.908z"/>
			<g>
				<path style="fill:#FFFFFF;" d="M84.979,363.497h-0.771c0-13.63,6.058-34.391,11.141-49.406
					c5.501-16.254,11.075-29.465,11.13-29.596l0.711,0.3C106.967,285.321,84.979,337.593,84.979,363.497z"/>
			</g>
		</g>
		<g>
			<path style="fill:#6CADE3;" d="M64.752,295.707c0.521-1.856,0.587-3.868,0.092-5.874c-0.92-3.731-3.56-6.584-6.868-7.929
				c0.143-0.199,0.285-0.4,0.414-0.613c2.611-4.32,1.225-9.938-3.095-12.549c-4.32-2.611-9.938-1.225-12.549,3.095
				c-2.572,4.256-1.259,9.766,2.912,12.425c-2.88,2.763-4.249,6.944-3.224,11.098c0.444,1.801,1.291,3.395,2.417,4.717
				c-2.5,3.493-3.518,8.015-2.408,12.513c2.014,8.166,10.267,13.153,18.433,11.139s13.153-10.267,11.139-18.433
				C70.973,301.071,68.258,297.7,64.752,295.707z"/>
			<g>
				<path style="fill:#FFFFFF;" d="M78.249,364.018l-0.477,0.266c-6.662-11.947-13.059-32.234-17.252-47.149
					c-4.539-16.145-7.547-29.648-7.577-29.782l0.586,0.017C53.649,287.908,65.589,341.312,78.249,364.018z"/>
			</g>
		</g>
		<path style="fill:#FFFFFF;" d="M96.121,351.188h0.497c2.248,0,4.087-1.839,4.087-4.087c0-2.248-1.839-4.087-4.087-4.087H62.104
			c-2.248,0-4.087,1.839-4.087,4.087c0,2.121,1.643,3.857,3.716,4.049c-4.64,4.491-7.53,10.781-7.53,17.749
			c0,13.644,11.061,24.704,24.704,24.704c13.644,0,24.704-11.061,24.704-24.704C103.611,361.951,100.738,355.677,96.121,351.188z"/>
	</g>
	<g>
		<g>
			<path style="fill:#36C0A9;" d="M285.578,314.405c-4.79-2.54-9.893-2.298-11.398,0.54c-1.505,2.838,1.158,7.198,5.947,9.738
				c4.79,2.54,11.398-0.54,11.398-0.54S290.367,316.944,285.578,314.405z"/>
			<path style="fill:#36C0A9;" d="M321.318,320.622c3.784-3.882,4.987-8.847,2.687-11.09c-2.301-2.243-7.233-0.914-11.018,2.969
				c-3.784,3.882-2.687,11.09-2.687,11.09S317.533,324.504,321.318,320.622z"/>
			<path style="fill:#36C0A9;" d="M323.057,344.174c4.539-3.418,6.576-8.369,4.551-11.059c-2.026-2.69-7.347-2.099-11.886,1.319
				c-4.539,3.418-4.551,11.059-4.551,11.059S318.518,347.592,323.057,344.174z"/>
			<path style="fill:#36C0A9;" d="M284.187,335.232c-4.837-2.981-10.19-3.073-11.957-0.207c-1.766,2.866,0.723,7.607,5.56,10.588
				c4.837,2.981,11.957,0.207,11.957,0.207S289.024,338.213,284.187,335.232z"/>
			<g>
				<rect x="300.82" y="301.213" style="fill:#1C916D;" width="2" height="83.514"/>
			</g>
			<g>
				<polygon style="fill:#1C916D;" points="301.948,331.916 279.303,318.098 280.344,316.391 301.693,329.418 318.287,313.904 
					319.652,315.365 				"/>
			</g>
			<g>
				<polygon style="fill:#1C916D;" points="301.896,352.682 279.775,342.384 280.618,340.572 301.745,350.407 322.906,336.908 
					323.982,338.594 				"/>
			</g>
		</g>
		<g>
			<path style="fill:#36C0A9;" d="M323.877,277.444c0-20.597-9.894-37.294-22.099-37.294c-12.205,0-22.1,16.697-22.1,37.293
				c0,20.597,22.099,37.294,22.099,37.294S323.877,298.041,323.877,277.444z"/>
			<g>
				<rect x="300.67" y="255.974" style="fill:#1C916D;" width="2" height="55.379"/>
			</g>
			<g>
				<polygon style="fill:#1C916D;" points="301.645,280.632 293.006,270.759 294.512,269.443 301.695,277.653 309.417,269.418 
					310.876,270.785 				"/>
			</g>
			<g>
				<polygon style="fill:#1C916D;" points="301.645,294.759 293.006,284.886 294.512,283.57 301.695,291.781 309.417,283.545 
					310.876,284.912 				"/>
			</g>
		</g>
	</g>
	<path style="fill:#FDB126;" d="M200.846,186.94c0,4.48-2.211,8.112-4.938,8.112c-2.727,0-4.938-3.632-4.938-8.112
		s4.938-8.112,4.938-8.112S200.846,182.46,200.846,186.94z"/>
	<path style="fill:#101A46;" d="M94.881,146.028H78.656c-1.552,0-2.822-1.27-2.822-2.822l0,0c0-1.552,1.27-2.822,2.822-2.822h16.225
		c1.552,0,2.822,1.27,2.822,2.822l0,0C97.702,144.758,96.433,146.028,94.881,146.028z"/>
	<g>
		<g>
			<g>
				<path style="opacity:0.29;fill:#B6DCFD;" d="M338.832,287.688c-7.861,6.983-19.156,10.896-29.65,10.275
					c-22.945-1.357-38.826-21.116-38.507-43.35c0.092-6.405,2.497-13.245,6.129-19.104c-3.832,3.574-7.082,7.901-9.482,12.913
					c-10.3,21.503-1.217,47.284,20.286,57.584c21.503,10.3,47.284,1.217,57.584-20.286c1.823-3.805,3.026-7.745,3.674-11.709
					C346.369,279.304,342.815,284.151,338.832,287.688z"/>
				<g>
					<path style="fill:#101A46;" d="M329.129,219.32c-26.373-12.632-57.992-1.493-70.624,24.88
						c-12.632,26.373-1.493,57.992,24.88,70.625c26.373,12.632,57.992,1.493,70.624-24.88
						C366.64,263.572,355.501,231.952,329.129,219.32z M345.191,285.721c-10.3,21.503-36.081,30.585-57.584,20.286
						c-21.503-10.3-30.585-36.081-20.286-57.584s36.081-30.585,57.584-20.286C346.408,238.437,355.491,264.218,345.191,285.721z"/>
					<path style="fill:#101A46;" d="M416.322,375.041l-74.776-77.437c-2.981,4.366-6.516,8.154-10.969,10.723l75,77.669
						c2.915,3.018,7.717,3.023,10.672,0.011C419.204,382.994,419.237,378.059,416.322,375.041z"/>
				</g>
			</g>
			<g>
				
					<rect x="283.605" y="263.67" transform="matrix(0.7476 -0.6641 0.6641 0.7476 -99.0837 267.6019)" style="fill:#FFFFFF;" width="37.896" height="1"/>
			</g>
			<g>
				
					<rect x="288.042" y="269.684" transform="matrix(0.7476 -0.6641 0.6641 0.7476 -101.9581 272.067)" style="fill:#FFFFFF;" width="37.897" height="1"/>
			</g>
		</g>
		<g>
			<path style="fill:#101A46;" d="M398.899,399.545l-0.323,23.126l-3.073-0.162l-3.234-22.641
				C392.268,399.868,397.605,397.443,398.899,399.545z"/>
			<path style="fill:#101A46;" d="M409.249,397.928l-0.323,23.126l-3.073-0.162l-3.234-22.641
				C402.618,398.251,407.955,395.825,409.249,397.928z"/>
			<path style="fill:#101A46;" d="M395.503,422.509l-5.989,3.244c0,0,2.851,1.069,8.91,0l0.151-3.082L395.503,422.509z"/>
			<path style="fill:#101A46;" d="M406.195,420.371l-5.989,3.244c0,0,2.851,1.069,8.91,0l0.151-3.082L406.195,420.371z"/>
			<path style="fill:#F4B985;" d="M404.933,346.578c0,0,1.415-1.673,2.187-0.129c0.772,1.544-1.029,4.117-2.573,3.731
				C403.003,349.794,404.933,346.578,404.933,346.578z"/>
			<path style="fill:#F4B985;" d="M405.447,350.18l-0.257,5.275c0,0-3.988,1.673-5.918,0.257l-0.129-5.275
				C399.143,350.438,405.061,348.508,405.447,350.18z"/>
			<path style="fill:#FFFFFF;" d="M397.857,355.584l8.491-1.415l0.257,2.316L412.968,401c0,0-18.113,2.749-24.42,0.323l7.277-43.664
				l2.102-0.485l-0.162-0.97"/>
			<path style="fill:#FFFFFF;" d="M400.031,360.247c0,0,2.588,5.66-8.895,13.423c0,0-3.72,1.456-9.865-12.291l3.396-2.264
				l6.954,7.601C391.621,366.716,394.37,356.527,400.031,360.247z"/>
			<g>
				<path style="fill:#6CADE3;" d="M406.375,391.316c-0.32-2.084-1.875-32.827-1.941-34.136l0.25-0.012
					c0.016,0.319,1.62,32.038,1.94,34.11L406.375,391.316z"/>
			</g>
			<g style="opacity:0.71;">
				<path style="fill:#6CADE3;" d="M398.414,384.858c-0.012,0-0.023,0-0.035-0.001l-4.689-0.162
					c-0.553-0.018-0.984-0.481-0.965-1.033c0.02-0.553,0.502-1.001,1.033-0.965l4.689,0.162c0.553,0.018,0.984,0.481,0.965,1.033
					C399.394,384.433,398.95,384.858,398.414,384.858z"/>
			</g>
			<path style="fill:#F4B985;" d="M380.609,360.645l0.428,0.618l2.362-1.632c0.009-0.016,0.017-0.025,0.026-0.045
				c0.182-0.312,0.531-1.046,0.387-1.907c-0.193-1.146-0.164-2.458-0.875-2.28c0,0-0.149,0.048-0.091,0.826
				c0.03,0.401-0.06,0.597-0.195,0.678l-1.302-1.381c0,0-1.377-2.915-1.838-2.58c0,0-0.193,0.15-0.109,0.4
				c0.064,0.189,0.917,1.809,1.333,2.596c-0.069,0.049-0.141,0.1-0.216,0.155c-0.011-0.021-0.02-0.041-0.033-0.064
				c0,0-1.886-3.087-2.315-2.711c0,0-0.178,0.168-0.051,0.433c0.097,0.204,1.273,1.971,1.818,2.786
				c-0.065,0.052-0.129,0.105-0.192,0.159c-0.254-0.356-1.849-2.556-2.215-2.18c0,0-0.165,0.18-0.039,0.412
				c0.092,0.17,1.153,1.551,1.711,2.274c-0.034,0.036-0.066,0.072-0.097,0.108c-0.162-0.214-1.392-1.811-1.696-1.459
				c0,0-0.135,0.165-0.043,0.334c0.075,0.137,1.042,1.296,1.405,1.73L380.609,360.645z"/>
			<path style="fill:#F4B985;" d="M407.163,343.536c0-3.599-2.918-6.517-6.517-6.517c-3.232,0-5.907,2.355-6.421,5.441
				c-0.042,0.078-0.076,0.163-0.1,0.258c0,0,0.006,0.169,0.022,0.46c-0.007,0.119-0.018,0.237-0.018,0.357
				c0,0.421,0.043,0.83,0.119,1.229c0.021,0.273,0.044,0.564,0.071,0.87l-0.684,3.008l1.049,0.131
				c0.35,2.311,0.901,4.467,1.756,4.752c1.93,0.643,6.304,0.515,7.205-0.643c0.526-0.677,1.183-2.975,1.639-4.772
				C406.445,346.933,407.163,345.319,407.163,343.536z"/>
			<path style="fill:#101A46;" d="M394.118,338.685c0,0,0.482,3.051,5.46,2.73l1.606,2.249c0,0,1.445,3.533,0.642,4.818
				c0,0,1.124,1.124,1.767-1.285c0.642-2.409,1.285-3.212,3.052-2.409l0.747,2.84c0,0,1.019-6.534-0.426-7.658
				C406.966,339.97,402.951,333.224,394.118,338.685z"/>
		</g>
	</g>
	<g>
		<g>
			<path style="fill:#6CADE3;stroke:#6CADE3;stroke-width:2;stroke-miterlimit:10;" d="M367.86,423.384v-23.753H238.037v23.753
				c-0.098,0.179-0.165,0.358-0.165,0.54c0,4.408,29.136,7.981,65.077,7.981c35.941,0,65.077-3.573,65.077-7.981
				C368.025,423.743,367.957,423.563,367.86,423.384z"/>
			<path style="opacity:0.25;fill:#FFFFFF;" d="M297.858,399.631h-12.707c-9.47,10.015-18.979,19.992-28.568,29.892
				c5.156,0.642,11.191,1.178,17.867,1.578C282.254,420.612,290.046,410.114,297.858,399.631z"/>
			<path style="opacity:0.25;fill:#FFFFFF;" d="M310.522,431.85c6.239-10.838,12.679-21.557,19.216-32.219h-14.516
				c-7.994,10.701-15.959,21.424-23.928,32.144c3.783,0.084,7.673,0.13,11.655,0.13C305.512,431.905,308.036,431.885,310.522,431.85
				z"/>
			
				<ellipse style="fill:#6CADE3;stroke:#6CADE3;stroke-width:2;stroke-miterlimit:10;" cx="302.948" cy="399.691" rx="65.308" ry="7.981"/>
			<ellipse style="opacity:0.33;fill:#FFFFFF;" cx="303.051" cy="400.82" rx="65.411" ry="6.851"/>
		</g>
		<g>
			<path style="fill:#AA664F;" d="M327.732,379.88c-0.862,0-1.694,0.118-2.494,0.318c0.138-2.491-0.735-5.028-2.638-6.931
				c-3.549-3.549-9.303-3.549-12.852,0c-0.049,0.048-0.089,0.102-0.136,0.151c-0.413-1.42-1.178-2.759-2.297-3.879
				c-3.549-3.549-9.303-3.549-12.853,0c-0.954,0.954-1.643,2.07-2.084,3.257c-3.519-2.266-8.258-1.863-11.338,1.217
				c-1.735,1.735-2.616,3.997-2.654,6.271c-0.204-0.012-0.406-0.031-0.613-0.031c-5.663,0-10.253,4.59-10.253,10.253
				c0,5.663,4.59,10.253,10.253,10.253c0.938,0,1.843-0.137,2.706-0.373h45.948c0.219,0,0.435-0.014,0.65-0.033
				c0.218,0.014,0.434,0.033,0.655,0.033c5.662,0,10.253-4.59,10.253-10.253C337.984,384.47,333.394,379.88,327.732,379.88z"/>
			<path style="opacity:0.15;fill:#101A46;" d="M319.138,386.372c-0.565,0-1.111,0.077-1.636,0.209
				c0.09-1.634-0.482-3.298-1.73-4.547c-2.328-2.328-6.103-2.328-8.431,0c-0.032,0.032-0.058,0.067-0.089,0.099
				c-0.271-0.932-0.772-1.81-1.507-2.544c-2.328-2.328-6.103-2.328-8.431,0c-0.626,0.626-1.078,1.358-1.367,2.136
				c-2.308-1.486-5.417-1.222-7.437,0.798c-1.138,1.138-1.716,2.622-1.741,4.113c-0.134-0.008-0.266-0.02-0.402-0.02
				c-3.714,0-6.726,3.011-6.726,6.725s3.011,6.726,6.726,6.726c0.615,0,1.209-0.09,1.775-0.245h30.141
				c0.144,0,0.285-0.009,0.426-0.022c0.143,0.009,0.285,0.022,0.43,0.022c3.714,0,6.725-3.011,6.725-6.726
				C325.864,389.384,322.852,386.372,319.138,386.372z"/>
			<ellipse style="opacity:0.28;fill:#101A46;" cx="316.462" cy="375.916" rx="1.713" ry="1.927"/>
			<path style="opacity:0.28;fill:#101A46;" d="M322.028,381.696c0,0.709-0.575,1.284-1.284,1.284c-0.709,0-1.284-0.575-1.284-1.284
				c0-0.709,0.575-1.285,1.284-1.285C321.453,380.412,322.028,380.987,322.028,381.696z"/>
			<path style="opacity:0.28;fill:#101A46;" d="M278.784,389.617c0,1.773-1.438,3.211-3.211,3.211c-1.773,0-3.211-1.438-3.211-3.211
				s1.438-3.211,3.211-3.211C277.346,386.406,278.784,387.844,278.784,389.617z"/>
		</g>
	</g>
	<g>
		
			<ellipse transform="matrix(0.9914 -0.1308 0.1308 0.9914 -19.6566 50.4079)" style="fill:#6CADE3;stroke:#6CADE3;stroke-width:2;stroke-miterlimit:10;" cx="374.009" cy="174.882" rx="49.133" ry="49.133"/>
		
			<ellipse transform="matrix(0.9855 -0.1696 0.1696 0.9855 -24.245 65.9777)" style="fill:#FFFFFF;" cx="374.009" cy="174.882" rx="43.171" ry="43.171"/>
		<g>
			<circle style="fill:#FD5852;" cx="374.857" cy="173.469" r="7.911"/>
			<g>
				<rect x="373.857" y="143.519" style="fill:#6CADE3;" width="2" height="22.039"/>
			</g>
			<g>
				
					<rect x="352.759" y="187.162" transform="matrix(0.6807 -0.7325 0.7325 0.6807 -21.7624 326.3915)" style="fill:#6CADE3;" width="21.592" height="2"/>
			</g>
			<g>
				
					<rect x="388.55" y="174.816" transform="matrix(0.6348 -0.7727 0.7727 0.6348 -0.7137 368.5977)" style="fill:#6CADE3;" width="2" height="20.476"/>
			</g>
			<path style="fill:#FDB126;" d="M379.762,142.671c0,2.865-2.323,5.187-5.187,5.187c-2.865,0-5.188-2.322-5.188-5.187
				c0-2.865,2.323-5.188,5.188-5.188C377.439,137.484,379.762,139.806,379.762,142.671z"/>
			<circle style="fill:#FDB126;" cx="355.361" cy="196.356" r="5.187"/>
			<path style="fill:#FDB126;" d="M403.779,193.248c0,2.865-2.323,5.187-5.187,5.187s-5.187-2.322-5.187-5.187
				c0-2.865,2.322-5.188,5.187-5.188S403.779,190.383,403.779,193.248z"/>
		</g>
		<g>
			<polygon style="fill:#6CADE3;" points="376.665,264.32 338.126,264.32 338.126,262.32 374.665,262.32 374.665,220.811 
				376.665,220.811 			"/>
		</g>
	</g>
	<g>
		<g>
			<path style="fill:none;stroke:#6CADE3;stroke-miterlimit:10;" d="M196.461,169.307L164.689,151.8
				c3.16-5.679,4.966-12.215,4.966-19.175c0-21.817-17.686-39.503-39.503-39.503c-21.817,0-39.503,17.686-39.503,39.503
				s17.686,39.503,39.503,39.503c10.741,0,20.474-4.293,27.595-11.248l33.776,15.481L196.461,169.307z"/>
			<path style="fill:#FDB126;" d="M143.847,133.872c-9.003-1.549-17.096-5.268-25.57-8.503c-6.212-2.372-13.035-4.646-19.536-3.933
				c-1.574,3.785-2.449,7.916-2.449,12.247c0,18.116,15.16,32.802,33.86,32.802c18.543,0,33.596-14.442,33.848-32.348
				C157.401,135.149,150.554,135.026,143.847,133.872z"/>
			<g>
				<path style="fill:#6CADE3;" d="M160.551,129.522c-1.2,0-2.259-0.866-2.463-2.089c-3.731-22.357-25.249-21.876-26.159-21.839
					c-1.369,0.044-2.537-1.032-2.585-2.412c-0.048-1.38,1.032-2.537,2.412-2.585c0.259-0.016,26.818-0.622,31.263,26.013
					c0.227,1.362-0.692,2.65-2.054,2.877C160.826,129.511,160.688,129.522,160.551,129.522z"/>
			</g>
		</g>
		<g>
			<path style="fill:#101A46;" d="M174.397,140.429H99.113V81.661c0-1.068-0.874-1.943-1.943-1.943
				c-1.068,0-1.943,0.874-1.943,1.943v58.767H91.98c-1.313,0-2.387,1.074-2.387,2.387v1.239c0,1.313,1.074,2.387,2.387,2.387h3.248
				v136.54c-1.209,0.319-2.111,1.414-2.111,2.719c0,1.305,0.902,2.4,2.111,2.719v127.078h-6.343c-1.746,0-3.174,1.428-3.174,3.174
				c0,1.746,1.428,3.174,3.174,3.174h76.89c1.746,0,3.174-1.428,3.174-3.174c0-1.746-1.429-3.174-3.174-3.174H99.113V288.522h13.05
				c0.121,0,0.236-0.021,0.353-0.036v4.268c0,1.358,1.111,2.469,2.469,2.469h0c1.358,0,2.469-1.111,2.469-2.469v-14.108
				c0-1.358-1.111-2.469-2.469-2.469h0c-1.358,0-2.469,1.111-2.469,2.469v4.268c-0.117-0.015-0.232-0.036-0.353-0.036h-13.05
				V146.441h75.284c1.313,0,2.387-1.074,2.387-2.387v-1.239C176.784,141.503,175.709,140.429,174.397,140.429z"/>
			<path style="fill:#101A46;" d="M77.598,134.741c-1.358,0-2.469,1.111-2.469,2.469v14.108c0,1.358,1.111,2.469,2.469,2.469
				c1.358,0,2.469-1.111,2.469-2.469V137.21C80.067,135.852,78.956,134.741,77.598,134.741z"/>
		</g>
	</g>
	<g>
		<g>
			<path style="fill:none;stroke:#6CADE3;stroke-width:2;stroke-miterlimit:10;" d="M215.09,228.079h-74.372
				c-5.273,0-9.587,2.799-9.587,6.22c0,3.421,4.314,6.22,9.587,6.22h1.101v146.878c0,12.876,16.239,23.41,36.086,23.41
				s36.085-10.535,36.085-23.41V240.518h1.101c5.273,0,9.587-2.799,9.587-6.22C224.678,230.877,220.363,228.079,215.09,228.079z"/>
			<path style="fill:#FDB126;" d="M146.594,346.1v30.309c0,15.899,14.09,28.906,31.311,28.906s31.31-13.008,31.31-28.906V346.1
				H146.594z"/>
			<path style="fill:#36C0A9;" d="M167.849,220.764c0-8.39,4.031-15.192,9.003-15.192c4.972,0,9.003,6.802,9.003,15.192
				c0,8.39-9.003,15.192-9.003,15.192S167.849,229.154,167.849,220.764z"/>
			<path style="fill:#36C0A9;" d="M186.111,260.188c5.209-6.578,12.591-9.408,16.489-6.321c3.898,3.087,2.835,10.921-2.374,17.499
				s-16.489,6.321-16.489,6.321S180.902,266.766,186.111,260.188z"/>
			<path style="fill:#36C0A9;" d="M157.67,250.854c-4.935-4.482-6.783-10.487-4.127-13.412c2.656-2.925,8.811-1.662,13.746,2.821
				s4.126,13.412,4.126,13.412S162.605,255.337,157.67,250.854z"/>
			<path style="fill:#36C0A9;" d="M155.898,289.196c-4.102-5.256-4.903-11.487-1.788-13.918c3.115-2.431,8.965-0.141,13.067,5.115
				c4.102,5.256,1.788,13.918,1.788,13.918S160,294.451,155.898,289.196z"/>
			<path style="fill:#1C916D;" d="M178.414,360.303v-39.76l17.246-18.863l-1.477-1.35l-15.77,17.248v-32.865l22.829-26.728
				l-1.521-1.299l-21.308,24.946v-67.059h-2v41.215l-16.935-13.856l-1.266,1.548l18.201,14.892v43.001l-15.44-18.444l-1.533,1.283
				l16.974,20.276v15.277l-0.235,0.257l0.235,0.215v39.977c-0.051,0.314-0.159,1.25,0,2.35v2.353c-2.589,1.02-6.156,2.26-7.44,2.26
				c-2.052,0-3.805,0.762-4.688,2.038c-0.878,1.267-0.94,2.928-0.187,4.94c0.417,1.112,0.807,1.936,1.091,2.539
				c0.222,0.471,0.474,1.004,0.476,1.133c-0.109,0.242-1.095,0.899-1.747,1.334l1.109,1.664c2.75-1.833,3.183-2.416,1.971-4.984
				c-0.284-0.602-0.639-1.353-1.026-2.388c-0.511-1.361-0.524-2.404-0.043-3.099c0.602-0.868,1.968-1.178,3.045-1.178
				c1.654,0,5.193-1.25,7.44-2.114v8.621l0.071,0.179c0.021,0.051,2.001,5.107-0.402,7.991c-2.1,2.521-3.151,5.422-2.812,7.762
				c0.23,1.591,1.082,2.919,2.462,3.839l1.109-1.664c-0.907-0.605-1.443-1.434-1.593-2.462c-0.259-1.787,0.627-4.103,2.37-6.194
				c2.884-3.462,1.187-8.743,0.794-9.824v-9.097c0.886,0.698,2.017,1.133,3.401,1.272c3.349,0.335,4.993,0.857,5.678,1.803
				c0.536,0.742,0.6,1.93,0.197,3.737c-0.175,0.788-0.378,1.575-0.575,2.344c-0.817,3.178-1.523,5.923-0.184,7.651
				c0.693,0.895,1.846,1.349,3.424,1.349v-2c-0.928,0-1.548-0.193-1.844-0.574c-0.739-0.954-0.089-3.483,0.54-5.928
				c0.203-0.789,0.411-1.599,0.592-2.408c0.534-2.406,0.366-4.105-0.53-5.343c-1.241-1.716-3.637-2.274-7.099-2.621
				c-1.348-0.135-2.336-0.612-2.938-1.419c-0.376-0.504-0.566-1.088-0.663-1.638v-2.039V360.303z"/>
			<path style="fill:#36C0A9;" d="M198.982,306.812c4.328-5.072,5.4-11.262,2.394-13.827c-3.006-2.565-8.95-0.532-13.278,4.54
				c-4.328,5.072-2.394,13.826-2.394,13.826S194.654,311.884,198.982,306.812z"/>
		</g>
		<path style="fill:#101A46;" d="M229.379,428.602l-18.049-95.638h10.525c1.94,0,3.527-1.587,3.527-3.527
			c0-1.94-1.587-3.527-3.527-3.527h-87.472c-1.94,0-3.527,1.587-3.527,3.527c0,1.94,1.587,3.527,3.527,3.527h11.721l-20.929,97.426
			c-0.356,1.655,0.708,3.3,2.363,3.656c1.655,0.356,3.3-0.708,3.656-2.363l21.207-98.719h52.664l18.264,96.78
			c0.314,1.663,1.932,2.768,3.595,2.454C228.589,431.883,229.693,430.265,229.379,428.602z"/>
		<g style="opacity:0.67;">
			<path style="fill:#FFFFFF;" d="M203.286,322.181c-1.105,0-2-0.896-2-2v-77.125c0-1.104,0.895-2,2-2c1.104,0,2,0.896,2,2v77.125
				C205.286,321.285,204.39,322.181,203.286,322.181z"/>
		</g>
	</g>
</g>
</svg>
